# xmcd
#
# Track frame offsets: 
#        150
#        15389
#        27182
#        39449
#        53183
#        67821
#        83199
#        97272
#        111083
#        124071
#        137592
#        150633
#        163686
#        177865
#        190998
#        204972
#        217556
#        231798
#        244702
#        256736
#        270484
#        284299
#        297773
#        310446
#
# Disc length: 4303 seconds
#
# Revision: 0
# Processed by: cddbd v1.5.2PL0 Copyright (c) Steve Scherf et al.
# Submitted via: ExactAudioCopy v0.99pb5
#
DISCID=4210cd18
DTITLE=The McCoy Brothers - Volume 2 1936 - 1944
DYEAR=1992
DGENRE=Blues
TTITLE0=Gypsy Woman Blues
TTITLE1=You Can't Play Me Cheap
TTITLE2=Keep on Trying
TTITLE3=Baby Please Don't Go
TTITLE4=We Gonna Move
TTITLE5=Back Door
TTITLE6=You Done Tore Your Pants with Me
TTITLE7=Save Me Some
TTITLE8=If You Take Me Back
TTITLE9=I'm Through with You
TTITLE10=When I Said Goodbye
TTITLE11=I Love You Baby
TTITLE12=What Will I Do?
TTITLE13=Oh Red's Twin Brother
TTITLE14=We Can't Agree
TTITLE15=Let's Try It Again
TTITLE16=I'll Get You Off My Mind
TTITLE17=It Ain't No Lie
TTITLE18=Got to Go Blues
TTITLE19=Come Over and See Me
TTITLE20=Sleeping by Myself
TTITLE21=Bessie Lee Blues
TTITLE22=Your Money Can't Buy Me
TTITLE23=I'm Alright Now
EXTD=
EXTT0=
EXTT1=
EXTT2=
EXTT3=
EXTT4=
EXTT5=
EXTT6=
EXTT7=
EXTT8=
EXTT9=
EXTT10=
EXTT11=
EXTT12=
EXTT13=
EXTT14=
EXTT15=
EXTT16=
EXTT17=
EXTT18=
EXTT19=
EXTT20=
EXTT21=
EXTT22=
EXTT23=
PLAYORDER=
